<svg width="360" height="180" viewBox="0 0 360 180" fill="none" xmlns="http://www.w3.org/2000/svg">
<g clip-path="url(#clip0_1149_27)">
<rect width="360" height="180" rx="20" fill="#05090F"/>
<path fill-rule="evenodd" clip-rule="evenodd" d="M125.414 80.3042L119 99.1888H122.669L124.017 95.1331H131.204L132.527 99.1888H136.221L129.807 80.3042H125.414ZM127.61 84.1279L130.231 92.0913H124.99L127.61 84.1279Z" fill="#CBE9FF"/>
<path d="M139.382 98.0735C140.23 98.9185 141.42 99.3409 142.951 99.3409C143.2 99.3409 143.475 99.324 143.774 99.2902C144.074 99.2564 144.34 99.2226 144.573 99.1888V96.3498C144.423 96.3667 144.265 96.3836 144.099 96.4005C143.949 96.4174 143.816 96.4259 143.699 96.4259C143.167 96.4259 142.726 96.3414 142.377 96.1724C142.044 96.0034 141.794 95.7583 141.628 95.4373C141.478 95.1162 141.403 94.7275 141.403 94.2712V88.365H144.523V85.3992H141.403V82.256H138.134V83.3207C138.134 83.9966 137.951 84.512 137.585 84.8669C137.219 85.2218 136.703 85.3992 136.037 85.3992H135.788V88.365H138.134V94.4487C138.134 96.0034 138.55 97.2117 139.382 98.0735Z" fill="#CBE9FF"/>
<path fill-rule="evenodd" clip-rule="evenodd" d="M154.008 99.0114C154.707 99.3325 155.53 99.493 156.479 99.493C157.228 99.493 157.91 99.3916 158.525 99.1888C159.141 98.9692 159.69 98.665 160.173 98.2763C160.366 98.1134 160.549 97.9356 160.722 97.7428V99.1888H163.816V90.0127C163.816 89.0325 163.575 88.1791 163.093 87.4525C162.627 86.7089 161.97 86.1343 161.121 85.7288C160.272 85.3063 159.291 85.0951 158.176 85.0951C157.261 85.0951 156.412 85.2471 155.63 85.5513C154.848 85.8555 154.166 86.278 153.584 86.8188C153.018 87.3426 152.602 87.9679 152.336 88.6945L155.006 90.0127C155.256 89.3874 155.647 88.8889 156.179 88.5171C156.728 88.1284 157.352 87.9341 158.051 87.9341C158.8 87.9341 159.399 88.1369 159.848 88.5425C160.314 88.9311 160.547 89.4212 160.547 90.0127V90.459L156.504 91.128C155.439 91.297 154.557 91.5843 153.858 91.9899C153.159 92.3954 152.644 92.9024 152.311 93.5108C151.978 94.1022 151.812 94.7782 151.812 95.5387C151.812 96.3329 152.003 97.0342 152.386 97.6426C152.768 98.2341 153.309 98.6903 154.008 99.0114ZM160.547 92.9967L157.128 93.5868C156.479 93.7051 155.996 93.9163 155.68 94.2205C155.364 94.5247 155.206 94.9218 155.206 95.4119C155.206 95.8851 155.381 96.2653 155.73 96.5526C156.096 96.823 156.545 96.9582 157.078 96.9582C157.76 96.9582 158.359 96.8145 158.875 96.5273C159.407 96.2231 159.815 95.809 160.098 95.2852C160.397 94.7613 160.547 94.1867 160.547 93.5615V92.9967Z" fill="#CBE9FF"/>
<path d="M169.958 89.5311C169.725 89.9704 169.609 90.4943 169.609 91.1027V99.1888H166.339V85.3992H169.409V87.0912C169.723 86.5252 170.156 86.0795 170.707 85.7541C171.439 85.3147 172.287 85.0951 173.252 85.0951C174.251 85.0951 175.133 85.3147 175.898 85.7541C176.68 86.1935 177.287 86.8103 177.72 87.6046C178.153 88.3819 178.369 89.286 178.369 90.3169V99.1888H175.099V91.1027C175.099 90.4943 174.983 89.9704 174.75 89.5311C174.517 89.0917 174.193 88.7537 173.777 88.5171C173.377 88.2636 172.903 88.1369 172.354 88.1369C171.822 88.1369 171.347 88.2636 170.931 88.5171C170.515 88.7537 170.191 89.0917 169.958 89.5311Z" fill="#CBE9FF"/>
<path d="M183.255 98.0735C184.104 98.9185 185.293 99.3409 186.824 99.3409C187.074 99.3409 187.348 99.324 187.648 99.2902C187.947 99.2564 188.213 99.2226 188.446 99.1888V96.3498C188.296 96.3667 188.138 96.3836 187.972 96.4005C187.822 96.4174 187.689 96.4259 187.573 96.4259C187.04 96.4259 186.599 96.3414 186.25 96.1724C185.917 96.0034 185.668 95.7583 185.501 95.4373C185.351 95.1162 185.277 94.7275 185.277 94.2712V88.365H188.396V85.3992H185.277V82.256H182.007V83.3207C182.007 83.9966 181.824 84.512 181.458 84.8669C181.092 85.2218 180.576 85.3992 179.911 85.3992H179.661V88.365H182.007V94.4487C182.007 96.0034 182.423 97.2117 183.255 98.0735Z" fill="#CBE9FF"/>
<path d="M197.607 98.4537C198.688 99.1466 199.953 99.493 201.4 99.493C202.432 99.493 203.33 99.3156 204.096 98.9607C204.861 98.6058 205.46 98.1158 205.893 97.4905C206.325 96.8483 206.542 96.1132 206.542 95.2852C206.542 94.305 206.234 93.477 205.618 92.801C205.019 92.1251 204.162 91.6181 203.048 91.2801L200.876 90.621C200.56 90.5196 200.277 90.4098 200.028 90.2915C199.795 90.1732 199.612 90.0211 199.479 89.8352C199.345 89.6493 199.279 89.4297 199.279 89.1762C199.279 88.7706 199.437 88.4411 199.753 88.1876C200.069 87.9341 200.502 87.8074 201.051 87.8074C201.733 87.8074 202.349 87.9932 202.898 88.365C203.447 88.7368 203.838 89.2353 204.071 89.8606L206.567 88.6692C206.151 87.537 205.452 86.6582 204.47 86.033C203.488 85.4077 202.357 85.0951 201.076 85.0951C200.094 85.0951 199.221 85.2725 198.455 85.6274C197.707 85.9823 197.116 86.4808 196.683 87.1229C196.267 87.7482 196.059 88.4833 196.059 89.3283C196.059 90.2746 196.351 91.0942 196.933 91.7871C197.532 92.4799 198.405 92.9954 199.553 93.3333L201.775 93.967C202.058 94.0515 202.315 94.1614 202.548 94.2966C202.798 94.4149 202.989 94.567 203.122 94.7529C203.272 94.9218 203.347 95.1415 203.347 95.4119C203.347 95.8513 203.172 96.2062 202.823 96.4766C202.474 96.7469 201.999 96.8821 201.4 96.8821C200.635 96.8821 199.936 96.6624 199.304 96.2231C198.688 95.7837 198.206 95.1753 197.856 94.398L195.41 95.5894C195.81 96.7892 196.542 97.744 197.607 98.4537Z" fill="#CBE9FF"/>
<path fill-rule="evenodd" clip-rule="evenodd" d="M218.268 100C216.987 100 215.789 99.7634 214.674 99.2902C213.559 98.8002 212.577 98.1242 211.729 97.2624C210.897 96.3836 210.24 95.3528 209.757 94.1698C209.291 92.97 209.058 91.6603 209.058 90.2408C209.058 88.8044 209.291 87.4947 209.757 86.3118C210.24 85.1289 210.905 84.1065 211.754 83.2446C212.602 82.3659 213.576 81.6899 214.674 81.2167C215.789 80.7436 216.987 80.507 218.268 80.507C219.532 80.507 220.722 80.7436 221.837 81.2167C222.951 81.6899 223.925 82.3659 224.757 83.2446C225.605 84.1065 226.271 85.1373 226.753 86.3371C227.236 87.5201 227.477 88.8213 227.477 90.2408C227.477 91.6603 227.236 92.97 226.753 94.1698C226.271 95.3528 225.605 96.3836 224.757 97.2624C223.925 98.1242 222.951 98.8002 221.837 99.2902C220.722 99.7634 219.532 100 218.268 100ZM218.268 98.4284C219.382 98.4284 220.406 98.2172 221.338 97.7947C222.269 97.3722 223.068 96.7807 223.733 96.0203C224.416 95.2598 224.94 94.3895 225.306 93.4094C225.672 92.4123 225.855 91.3561 225.855 90.2408C225.855 89.1424 225.672 88.1031 225.306 87.1229C224.94 86.1259 224.416 85.2471 223.733 84.4867C223.068 83.7262 222.269 83.1348 221.338 82.7123C220.422 82.2729 219.399 82.0532 218.268 82.0532C217.136 82.0532 216.105 82.2729 215.173 82.7123C214.258 83.1348 213.459 83.7262 212.777 84.4867C212.111 85.2471 211.596 86.1259 211.23 87.1229C210.864 88.1031 210.68 89.1424 210.68 90.2408C210.68 91.3561 210.864 92.4123 211.23 93.4094C211.596 94.3895 212.111 95.2598 212.777 96.0203C213.459 96.7807 214.266 97.3722 215.198 97.7947C216.13 98.2172 217.153 98.4284 218.268 98.4284Z" fill="#CBE9FF"/>
<path d="M232.44 99.3156C233.389 99.7719 234.454 100 235.635 100C236.766 100 237.773 99.7888 238.655 99.3663C239.553 98.9269 240.252 98.3354 240.751 97.5919C241.25 96.8314 241.5 95.9527 241.5 94.9556C241.5 93.7389 241.134 92.7165 240.402 91.8885C239.686 91.0435 238.663 90.4183 237.332 90.0127L234.287 89.1001C233.156 88.7452 232.349 88.2636 231.866 87.6553C231.384 87.0469 231.142 86.3118 231.142 85.4499C231.142 84.7402 231.309 84.1234 231.642 83.5995C231.974 83.0756 232.432 82.67 233.014 82.3828C233.597 82.0955 234.254 81.9518 234.986 81.9518C236.101 81.9518 237.091 82.256 237.956 82.8644C238.821 83.4559 239.462 84.3346 239.878 85.5006L241.3 84.9683C241.051 84.1572 240.626 83.4221 240.027 82.763C239.445 82.087 238.721 81.5463 237.856 81.1407C237.008 80.7182 236.043 80.507 234.961 80.507C233.929 80.507 233.006 80.7182 232.191 81.1407C231.375 81.5632 230.726 82.1546 230.244 82.9151C229.778 83.6586 229.545 84.5289 229.545 85.526C229.545 86.6751 229.87 87.706 230.519 88.6185C231.184 89.5142 232.207 90.1648 233.588 90.5703L236.983 91.5843C237.848 91.8209 238.547 92.2095 239.079 92.7503C239.628 93.2911 239.903 94.0515 239.903 95.0317C239.903 95.7414 239.72 96.3583 239.354 96.8821C238.988 97.406 238.48 97.8116 237.831 98.0989C237.199 98.3861 236.458 98.5298 235.61 98.5298C234.329 98.5298 233.222 98.1918 232.291 97.5158C231.375 96.8399 230.685 95.8597 230.219 94.5754L228.771 95.1077C229.038 95.9696 229.479 96.7723 230.094 97.5158C230.726 98.2594 231.509 98.8593 232.44 99.3156Z" fill="#CBE9FF"/>
<path d="M146.572 99.1888V80H149.841V99.1888H146.572Z" fill="#CBE9FF"/>
<path d="M190.445 99.1888V85.3992H193.714V99.1888H190.445Z" fill="#CBE9FF"/>
<path d="M190.445 83.853V80.3042H193.714V83.853H190.445Z" fill="#CBE9FF"/>
<path d="M84.6025 110.37L18 71.9171C6.86156 65.4863 -6.86156 65.4863 -18 71.9171L-84.6025 110.37C-95.741 116.801 -102.603 128.685 -102.603 141.547V218.453C-102.603 231.315 -95.741 243.199 -84.6025 249.63L-18 288.083C-6.86156 294.514 6.86156 294.514 18 288.083L84.6025 249.63C95.741 243.199 102.603 231.315 102.603 218.453V141.547C102.603 128.685 95.741 116.801 84.6025 110.37Z" fill="#2367CE" stroke="#CBE9FF" stroke-width="32"/>
<path d="M444.603 -69.6299L378 -108.083C366.862 -114.514 353.138 -114.514 342 -108.083L275.397 -69.6299C264.259 -63.1991 257.397 -51.3146 257.397 -38.453V38.453C257.397 51.3146 264.259 63.1991 275.397 69.6299L342 108.083C353.138 114.514 366.862 114.514 378 108.083L444.603 69.6299C455.741 63.1991 462.603 51.3146 462.603 38.453V-38.453C462.603 -51.3146 455.741 -63.1991 444.603 -69.6299Z" fill="#2367CE" stroke="#CBE9FF" stroke-width="32"/>
</g>
<defs>
<clipPath id="clip0_1149_27">
<rect width="360" height="180" rx="20" fill="white"/>
</clipPath>
</defs>
</svg>
